<?xml version="1.0" encoding="UTF-8" ?>
<!DOCTYPE svg PUBLIC "-//W3C//DTD SVG 1.1//EN" "http://www.w3.org/Graphics/SVG/1.1/DTD/svg11.dtd">
<svg width="57pt" height="55pt" viewBox="0 0 57 55" version="1.1" xmlns="http://www.w3.org/2000/svg">
<path fill="#ffffff" d=" M 0.00 0.00 L 57.00 0.00 L 57.00 55.00 L 31.68 55.00 C 43.18 52.47 52.54 41.96 52.49 29.98 C 44.00 30.03 35.51 29.98 27.02 30.00 C 26.98 21.15 26.98 12.29 27.03 3.44 C 16.85 3.13 6.82 9.49 2.82 18.86 C -1.56 28.38 0.69 40.43 8.26 47.68 C 11.84 51.31 16.50 53.59 21.34 55.00 L 0.00 55.00 L 0.00 0.00 Z" />
<path fill="#10a8ef" d=" M 30.04 0.94 C 44.12 -0.71 57.45 12.98 56.14 26.95 C 47.43 27.07 38.72 26.97 30.02 27.00 C 30.00 18.31 29.96 9.63 30.04 0.94 Z" />
<path fill="#10a8ef" d=" M 2.82 18.86 C 6.82 9.49 16.85 3.13 27.03 3.44 C 26.98 12.29 26.98 21.15 27.02 30.00 C 35.51 29.98 44.00 30.03 52.49 29.98 C 52.54 41.96 43.18 52.47 31.68 55.00 L 21.34 55.00 C 16.50 53.59 11.84 51.31 8.26 47.68 C 0.69 40.43 -1.56 28.38 2.82 18.86 Z" />
<path fill="#ffffff" d=" M 32.99 3.56 C 43.36 4.59 52.50 13.53 53.31 24.00 C 46.54 24.01 39.78 23.99 33.01 24.01 C 32.96 17.19 33.03 10.37 32.99 3.56 Z" />
<path fill="#ffffff" d=" M 3.60 29.01 C 3.39 17.78 12.95 7.60 24.01 6.55 C 24.04 14.08 23.91 21.61 24.05 29.14 C 23.82 31.33 25.71 33.21 27.91 32.95 C 35.02 33.11 42.14 32.92 49.25 33.01 C 48.38 39.81 43.87 45.67 38.16 49.25 C 32.14 52.78 24.47 53.22 17.99 50.72 C 9.48 47.19 3.17 38.38 3.60 29.01 Z" />
</svg>
