<?xml version="1.0" encoding="UTF-8" ?>
<!DOCTYPE svg PUBLIC "-//W3C//DTD SVG 1.1//EN" "http://www.w3.org/Graphics/SVG/1.1/DTD/svg11.dtd">
<svg width="70pt" height="46pt" viewBox="0 0 70 46" version="1.1" xmlns="http://www.w3.org/2000/svg">
<path fill="#ffffff" d=" M 0.00 0.00 L 2.80 0.00 C 2.31 1.25 1.29 2.31 0.00 2.73 L 0.00 0.00 Z" />
<path fill="#10a8ef" d=" M 2.80 0.00 L 41.70 0.00 C 44.60 1.20 44.90 4.31 45.39 7.00 C 49.13 7.01 52.95 6.58 56.65 7.32 C 58.40 8.14 59.57 9.80 60.83 11.20 C 63.96 15.15 67.56 18.76 70.00 23.21 L 70.00 36.57 C 68.93 39.05 66.34 39.83 63.98 40.54 C 62.21 42.87 60.18 45.20 57.23 46.00 L 53.93 46.00 C 51.07 45.03 49.15 42.71 47.64 40.22 C 46.16 39.99 44.67 39.76 43.19 39.53 C 36.95 40.40 30.64 40.02 24.36 40.09 C 22.85 42.63 20.95 45.06 18.00 46.00 L 14.04 46.00 C 11.46 44.75 9.53 42.61 7.80 40.40 C 4.74 40.03 0.93 39.83 0.00 36.21 L 0.00 2.73 C 1.29 2.31 2.31 1.25 2.80 0.00 Z" />
<path fill="#ffffff" d=" M 41.70 0.00 L 70.00 0.00 L 70.00 23.21 C 67.56 18.76 63.96 15.15 60.83 11.20 C 59.57 9.80 58.40 8.14 56.65 7.32 C 52.95 6.58 49.13 7.01 45.39 7.00 C 44.90 4.31 44.60 1.20 41.70 0.00 Z" />
<path fill="#ffffff" d=" M 3.30 3.24 C 7.16 2.60 11.09 3.00 14.99 2.92 C 23.95 3.00 32.91 2.74 41.87 3.08 C 42.10 14.35 42.07 25.63 41.88 36.90 C 35.96 37.21 30.04 37.07 24.12 37.05 C 23.08 34.84 22.40 32.12 20.06 30.89 C 17.03 29.20 12.59 29.61 10.37 32.46 C 9.34 33.91 8.80 35.63 8.07 37.24 C 6.49 37.05 4.82 37.20 3.31 36.62 C 2.57 31.46 3.19 26.20 3.00 21.00 C 3.18 15.08 2.60 9.13 3.30 3.24 Z" />
<path fill="#ffffff" d=" M 44.92 10.01 C 48.53 9.95 52.14 9.95 55.76 9.96 C 59.56 14.40 63.32 18.88 66.99 23.43 C 67.01 27.89 67.07 32.35 66.85 36.80 C 65.79 37.06 64.72 37.07 63.66 36.84 C 62.66 33.35 60.15 29.57 56.01 29.95 C 51.58 29.34 48.94 33.37 47.79 37.04 C 47.07 37.04 45.63 37.03 44.92 37.03 C 44.79 28.02 44.79 19.01 44.92 10.01 Z" />
<path fill="#10a8ef" d=" M 46.98 12.53 C 49.52 12.24 52.07 12.04 54.63 12.09 C 56.72 14.95 60.14 17.26 60.82 20.88 C 56.34 22.07 51.63 21.43 47.07 21.16 C 47.03 18.29 47.01 15.41 46.98 12.53 Z" />
<path fill="#ffffff" d=" M 50.07 14.81 C 52.91 14.69 54.86 16.51 56.56 18.50 C 54.38 18.49 52.20 18.48 50.02 18.47 C 50.04 17.25 50.05 16.03 50.07 14.81 Z" />
<path fill="#ffffff" d=" M 13.35 33.38 C 16.64 31.29 21.69 33.88 21.24 37.94 C 21.52 42.03 16.07 44.74 13.01 41.99 C 10.02 40.03 10.26 35.11 13.35 33.38 Z" />
<path fill="#ffffff" d=" M 53.44 33.14 C 56.22 31.91 59.96 33.18 60.82 36.25 C 62.36 40.27 57.42 44.70 53.62 42.59 C 49.78 40.99 49.69 34.91 53.44 33.14 Z" />
<path fill="#10a8ef" d=" M 13.68 37.94 C 14.75 36.86 16.89 34.92 17.82 37.25 C 18.30 40.05 14.85 39.83 13.68 37.94 Z" />
<path fill="#10a8ef" d=" M 55.97 40.28 C 53.61 38.86 53.86 36.53 56.15 35.32 C 57.43 36.98 57.63 38.72 55.97 40.28 Z" />
<path fill="#ffffff" d=" M 0.00 36.21 C 0.93 39.83 4.74 40.03 7.80 40.40 C 9.53 42.61 11.46 44.75 14.04 46.00 L 0.00 46.00 L 0.00 36.21 Z" />
<path fill="#ffffff" d=" M 63.98 40.54 C 66.34 39.83 68.93 39.05 70.00 36.57 L 70.00 46.00 L 57.23 46.00 C 60.18 45.20 62.21 42.87 63.98 40.54 Z" />
<path fill="#ffffff" d=" M 24.36 40.09 C 30.64 40.02 36.95 40.40 43.19 39.53 C 44.67 39.76 46.16 39.99 47.64 40.22 C 49.15 42.71 51.07 45.03 53.93 46.00 L 18.00 46.00 C 20.95 45.06 22.85 42.63 24.36 40.09 Z" />
</svg>
